<?xml version="1.0" encoding="UTF-8" standalone="no"?>
<!-- Created with Inkscape (http://www.inkscape.org/) -->

<svg
   xmlns:dc="http://purl.org/dc/elements/1.1/"
   xmlns:cc="http://creativecommons.org/ns#"
   xmlns:rdf="http://www.w3.org/1999/02/22-rdf-syntax-ns#"
   xmlns:svg="http://www.w3.org/2000/svg"
   xmlns="http://www.w3.org/2000/svg"
   xmlns:xlink="http://www.w3.org/1999/xlink"
   version="1.1"
   width="400"
   height="400"
   viewbox="100,100, 400,400"
   id="svg2">
  <metadata
     id="metadata35">
    <rdf:RDF>
      <cc:Work
         rdf:about="">
        <dc:format>image/svg+xml</dc:format>
        <dc:type
           rdf:resource="http://purl.org/dc/dcmitype/StillImage" />
        <dc:title></dc:title>
      </cc:Work>
    </rdf:RDF>
  </metadata>
  <defs
     id="defs4">
    <linearGradient
       id="linearGradientgruen_color">
      <stop
         id="stop3853"
         style="stop-color:#8969ff;stop-opacity:1"
         offset="0" />
      <stop
         id="stop3855"
         style="stop-color:#8969ff;stop-opacity:0"
         offset="1" />
    </linearGradient>
    <linearGradient
       id="linearGradientocker_color">
      <stop
         id="stop9"
         style="stop-color:#5f66e8;stop-opacity:1"
         offset="0" />
      <stop
         id="stop11"
         style="stop-color:#5f66e8;stop-opacity:0"
         offset="1" />
    </linearGradient>
    <linearGradient
       id="linearGradientgelb_color">
      <stop
         id="stop3837"
         style="stop-color:#75a1ff;stop-opacity:1"
         offset="0" />
      <stop
         id="stop3839"
         style="stop-color:#75a1ff;stop-opacity:0"
         offset="1" />
    </linearGradient>
    <linearGradient
       id="linearGradienthellblau_color">
      <stop
         id="stop3829"
         style="stop-color:#5fafe8;stop-opacity:1"
         offset="0" />
      <stop
         id="stop3831"
         style="stop-color:#5fafe8;stop-opacity:0"
         offset="1" />
    </linearGradient>
    <linearGradient
       id="linearGradientrot_color">
      <stop
         id="stop20"
         style="stop-color:#69e7ff;stop-opacity:1"
         offset="0" />
      <stop
         id="stop22"
         style="stop-color:#69e7ff;stop-opacity:0"
         offset="1" />
    </linearGradient>
    <linearGradient
       id="linearGradient3811">
      <stop
         id="stop3813"
         style="stop-color:#c160ff;stop-opacity:1"
         offset="0" />
      <stop
         id="stop3815"
         style="stop-color:#c160ff;stop-opacity:0"
         offset="1" />
    </linearGradient>
    <linearGradient
       x1="0"
       y1="0"
       x2="1"
       y2="1"
       id="linearGradientblau_pos"
       xlink:href="#linearGradient3811"
       gradientUnits="userSpaceOnUse"
       gradientTransform="matrix(0,-1,1,0,0,0)" />
    <linearGradient
       x1="0"
       y1="0"
       x2="1"
       y2="1"
       id="linearGradientrot_pos"
       xlink:href="#linearGradientrot_color"
       gradientUnits="userSpaceOnUse"
       gradientTransform="matrix(0,-1,-1,0,0,0)" />
    <linearGradient
       x1="0"
       y1="0"
       x2="1"
       y2="1"
       id="linearGradient3833"
       xlink:href="#linearGradienthellblau_color"
       gradientUnits="userSpaceOnUse"
       gradientTransform="matrix(0,-1,1,0,0,0)" />
    <linearGradient
       x1="0"
       y1="0"
       x2="1"
       y2="1"
       id="linearGradientgelb_pos"
       xlink:href="#linearGradientgelb_color"
       gradientUnits="userSpaceOnUse"
       gradientTransform="matrix(0,-1,1,0,0,0)" />
    <linearGradient
       x1="0"
       y1="0"
       x2="1"
       y2="1"
       id="linearGradientocker_pos"
       xlink:href="#linearGradientocker_color"
       gradientUnits="userSpaceOnUse"
       gradientTransform="matrix(0,-1,-1,0,0,0)" />
    <linearGradient
       x1="0"
       y1="0"
       x2="1"
       y2="1"
       id="linearGradientgruen_pos"
       xlink:href="#linearGradientgruen_color"
       gradientUnits="userSpaceOnUse"
       gradientTransform="matrix(0,1,-1,0,0,0)" />
    <linearGradient
       x1="0"
       y1="0"
       x2="1"
       y2="1"
       id="linearGradient3038"
       xlink:href="#linearGradient3811"
       gradientUnits="userSpaceOnUse"
       gradientTransform="matrix(0,-1,1,0,0,0)" />
    <linearGradient
       x1="0"
       y1="0"
       x2="1"
       y2="1"
       id="xlinearGradientgelb_pos"
       xlink:href="#linearGradientgelb_color"
       gradientUnits="userSpaceOnUse"
       gradientTransform="matrix(0,-1,1,0,0,0)" />
    <linearGradient
       x1="0"
       y1="0"
       x2="1"
       y2="1"
       id="linearGradienthellblau_pos"
       xlink:href="#linearGradienthellblau_color"
       gradientUnits="userSpaceOnUse"
       gradientTransform="matrix(0,-1,1,0,0,0)" />
    <linearGradient
       x1="0"
       y1="0"
       x2="1"
       y2="1"
       id="linearGradient3044"
       xlink:href="#linearGradientgruen_color"
       gradientUnits="userSpaceOnUse"
       gradientTransform="matrix(0,1,-1,0,0,0)" />
    <linearGradient
       x1="0"
       y1="0"
       x2="1"
       y2="1"
       id="linearGradient3052"
       xlink:href="#linearGradient3811"
       gradientUnits="userSpaceOnUse"
       gradientTransform="matrix(0,-1,1,0,0,0)" />
    <linearGradient
       x1="0"
       y1="0"
       x2="1"
       y2="1"
       id="linearGradient3054"
       xlink:href="#linearGradientocker_color"
       gradientUnits="userSpaceOnUse"
       gradientTransform="matrix(0,-1,-1,0,0,0)" />
    <linearGradient
       x1="0"
       y1="0"
       x2="1"
       y2="1"
       id="linearGradient3056"
       xlink:href="#linearGradientgelb_color"
       gradientUnits="userSpaceOnUse"
       gradientTransform="matrix(0,-1,1,0,0,0)" />
    <linearGradient
       x1="0"
       y1="0"
       x2="1"
       y2="1"
       id="linearGradient3058"
       xlink:href="#linearGradienthellblau_color"
       gradientUnits="userSpaceOnUse"
       gradientTransform="matrix(0,-1,1,0,0,0)" />
    <linearGradient
       x1="0"
       y1="0"
       x2="1"
       y2="1"
       id="linearGradient3060"
       xlink:href="#linearGradientrot_color"
       gradientUnits="userSpaceOnUse"
       gradientTransform="matrix(0,-1,-1,0,0,0)" />
  </defs>
  <g
     transform="translate(0.80564416,-751.13297)"
     id="logo01">
    <g
       transform="matrix(0.83118961,0,0,0.9148824,-159.17351,473.80662)"
       id="layout"
       style="display:inline">
      <g
         id="gblau01"
         style="display:inline">
        <path
           d="m 283.92857,439.71932 0,-28 -16.66511,-35.5 c -9.16581,-19.525 -19.36652,-41.20765 -22.66825,-48.18366 -9.29696,-19.64294 -16.44719,-25.78965 -28.54737,-24.5408 -9.46516,0.97688 -19.4577,10.04773 -21.42485,15.72446 l -3.23013,9.32143 0.24045,65.17857 c 0.14203,38.50008 -0.0402,71.01703 0.27158,72.26007 l 0.56684,2.26008 45.72842,-0.26008 45.72842,-0.26007 z"
           id="pblau01"
           style="fill:url(#linearGradient3052);fill-opacity:1" />
      </g>
      <g
         id="gocker01"
         style="display:inline">
        <path
           d="m 276.3145,392.70064 c -1.86239,-2.75 95.0844,5.97148 93.87124,3.63422 -11.79524,-22.72452 -11.63298,-24.78926 -20.42731,-42.34519 -5.37452,-10.72902 -10.27609,-24.54626 -13.97916,-29.49626 -6.56991,-8.7773 -10.60502,-24.22662 -35.3269,-21.1588 -10.85047,-0.43855 -31.16496,0.009 -46.63675,0.0769 -16.9763,0.0745 -15.0076,-0.95653 -26.85712,-0.33505 15.90583,7.34137 36.78477,60.04053 49.356,89.62418 z"
           id="pocker01"
           style="fill:url(#linearGradient3054);fill-opacity:1" />
      </g>
      <g
         id="ggelb01"
         style="display:inline">
        <path
           d="m 388.63708,468.21099 20.54007,-0.053 c 0,0 -8.99181,-10.07104 -12.83643,-17.543 -3.58951,-6.97616 -7.17174,-15.32479 -15.35544,-31.29007 -5.38611,-10.50758 -9.01397,-21.92091 -11.54766,-24.06832 -4.71953,-4 -33.96392,-1.59902 -44.94334,-2.00828 -2.63151,-0.0981 -34.5298,-0.80338 -37.98768,-0.87291 -6.46057,-0.1299 -11.03679,-1.24186 -9.91843,1.30814 5.2088,14.39484 12.61911,29.36295 20.38467,46.22482 3.938,8.26742 9.19168,20.81895 20.18244,27.34056 8.44075,1.86423 34.42016,1.81401 44.78672,1.68898 22.75593,-0.27447 14.76173,-0.82136 26.69508,-0.72696 z"
           id="pgelb01"
           style="fill:url(#linearGradient3056);fill-opacity:1" />
      </g>
      <g
         id="ghellblau01"
         style="display:inline">
        <path
           d="m 203.6592,307.94005 c 4.28448,-2.81741 8.14781,-4.92577 15.0314,-4.55924 4.20192,0.22374 5.54576,-1.77887 10.85648,1.40106 2.71006,1.62272 6.12168,5.61383 8.20237,8.22316 6.47969,8.12598 15.28876,23.44289 23.98304,44.22928 10.61921,25.38854 22.57757,55.59782 22.57757,55.59782 0,0 0.082,13.87011 -0.0729,22.35188 -0.17326,9.48735 -0.21748,18.13543 -0.21748,18.13543 0,0 -29.51293,-36.41409 -39.21096,-49.06395 -9.69803,-12.64986 -17.87487,-24.42228 -26.86955,-35.585 -8.99467,-11.16271 -26.59798,-32.99822 -26.59798,-32.99822 0,0 -0.78559,-6.53592 0.5645,-10.81009 1.82309,-5.7716 7.56457,-14.16754 11.75351,-16.92213 z"
           id="phellblau01"
           style="fill:url(#linearGradient3058);fill-opacity:1" />
      </g>
      <g
         id="grot01"
         style="display:inline">
        <path
           d="m 407.53332,323.57179 c 6.54351,-10.11421 6.70968,-13.4068 11.72671,-16.53725 6.00107,-3.74446 5.56906,-3.95808 13.23997,-3.95808 14.12957,0 26.3618,6.06598 26.3618,21.78572 0,12.721 0.14211,32.42082 0.18878,36.22822 0.27836,22.70775 1.48317,24.41949 0.47319,37.94883 -1.43011,19.1565 -21.9321,58.65328 -27.02377,63.75046 -5.14039,5.14595 -11.06537,5.46891 -13.70211,5.50065 -6.37563,0.0767 -9.8724,-0.16415 -9.8724,-0.16415 0,0 -6.21496,-7.10574 -10.71052,-14.27197 -4.49555,-7.16624 -7.38671,-14.4659 -9.94761,-19.6349 -4.04545,-8.16548 -10.51418,-20.7673 -16.02236,-34.54459"
           id="prot01"
           style="fill:url(#linearGradient3060);fill-opacity:1" />
      </g>
      <g
         id="lgruen01"
         style="display:inline">
        <path
           d="m 551.02689,400.46086 c 0.21665,15.72349 0.5164,68.54273 0.5164,68.54273 l -92.68149,-0.69434 c 0,0 0,-1.91873 -0.0651,-31.94456 l 0.0606,-35.29988 c 0.0433,-25.23032 -0.28586,-33.17479 -0.28586,-41.7972 0,-3.48288 0.79177,-25.24485 0,-34.40543 0.29037,-15.71974 -15.09538,-21.70278 -26.07143,-21.78572 -1.45549,-0.0428 -1.10247,0 9.37195,0 18.86559,0 64.78069,-0.31939 86.69948,0 12.29061,0 22.97186,12.81211 22.97186,21.78572 0,41.33433 0,45.61509 -0.5164,75.59868 z"
           id="pgruen01"
           style="fill:url(#linearGradientgruen_pos)" />
      </g>
    </g>
    <g
       transform="matrix(-0.83273609,0,0,-0.91586513,459.59345,1330.4257)"
       id="layout02"
       style="display:inline">
      <g
         id="gblau02"
         style="display:inline">
        <path
           d="m 283.92857,439.71932 0,-28 -16.66511,-35.5 c -9.16581,-19.525 -19.36652,-41.20765 -22.66825,-48.18366 -9.29696,-19.64294 -16.44719,-25.78965 -28.54737,-24.5408 -9.46516,0.97688 -19.4577,10.04773 -21.42485,15.72446 l -3.23013,9.32143 0.24045,65.17857 c 0.14203,38.50008 -0.0402,71.01703 0.27158,72.26007 l 0.56684,2.26008 45.72842,-0.26008 45.72842,-0.26007 z"
           id="pblau02"
           style="fill:url(#linearGradientblau_pos);fill-opacity:1" />
      </g>
      <g
         id="gocker02"
         style="display:inline">
        <path
           d="m 276.3145,392.70064 c -1.86239,-2.75 95.0844,5.97148 93.87124,3.63422 -11.79524,-22.72452 -11.63298,-24.78926 -20.42731,-42.34519 -5.37452,-10.72902 -10.27609,-24.54626 -13.97916,-29.49626 -6.56991,-8.7773 -10.60502,-24.22662 -35.3269,-21.1588 -10.85047,-0.43855 -31.16496,0.009 -46.63675,0.0769 -16.9763,0.0745 -15.0076,-0.95653 -26.85712,-0.33505 15.90583,7.34137 36.78477,60.04053 49.356,89.62418 z"
           id="pocker02"
           style="fill:url(#linearGradientocker_pos);fill-opacity:1" />
      </g>
      <g
         id="ggelb02"
         style="display:inline">
        <path
           d="m 388.63708,468.21099 20.54007,-0.053 c 0,0 -8.99181,-10.07104 -12.83643,-17.543 -3.58951,-6.97616 -7.17174,-15.32479 -15.35544,-31.29007 -5.38611,-10.50758 -9.01397,-21.92091 -11.54766,-24.06832 -4.71953,-4 -33.96392,-1.59902 -44.94334,-2.00828 -2.63151,-0.0981 -34.5298,-0.80338 -37.98768,-0.87291 -6.46057,-0.1299 -11.03679,-1.24186 -9.91843,1.30814 5.2088,14.39484 12.61911,29.36295 20.38467,46.22482 3.938,8.26742 9.19168,20.81895 20.18244,27.34056 8.44075,1.86423 34.42016,1.81401 44.78672,1.68898 22.75593,-0.27447 14.76173,-0.82136 26.69508,-0.72696 z"
           id="pgelb02"
           style="fill:url(#linearGradientgelb_pos);fill-opacity:1" />
      </g>
      <g
         id="ghellblau02"
         style="display:inline">
        <path
           d="m 203.6592,307.94005 c 4.28448,-2.81741 8.14781,-4.92577 15.0314,-4.55924 4.20192,0.22374 5.54576,-1.77887 10.85648,1.40106 2.71006,1.62272 6.12168,5.61383 8.20237,8.22316 6.47969,8.12598 15.28876,23.44289 23.98304,44.22928 10.61921,25.38854 22.57757,55.59782 22.57757,55.59782 0,0 0.082,13.87011 -0.0729,22.35188 -0.17326,9.48735 -0.21748,18.13543 -0.21748,18.13543 0,0 -29.51293,-36.41409 -39.21096,-49.06395 -9.69803,-12.64986 -17.87487,-24.42228 -26.86955,-35.585 -8.99467,-11.16271 -26.59798,-32.99822 -26.59798,-32.99822 0,0 -0.78559,-6.53592 0.5645,-10.81009 1.82309,-5.7716 7.56457,-14.16754 11.75351,-16.92213 z"
           id="phellblau02"
           style="fill:url(#linearGradienthellblau_pos);fill-opacity:1" />
      </g>
      <g
         id="grot02"
         style="display:inline">
        <path
           d="m 407.53332,323.57179 c 6.54351,-10.11421 6.70968,-13.4068 11.72671,-16.53725 6.00107,-3.74446 5.56906,-3.95808 13.23997,-3.95808 14.12957,0 26.3618,6.06598 26.3618,21.78572 0,12.721 0.14211,32.42082 0.18878,36.22822 0.27836,22.70775 1.48317,24.41949 0.47319,37.94883 -1.43011,19.1565 -21.9321,58.65328 -27.02377,63.75046 -5.14039,5.14595 -11.06537,5.46891 -13.70211,5.50065 -6.37563,0.0767 -9.8724,-0.16415 -9.8724,-0.16415 0,0 -6.21496,-7.10574 -10.71052,-14.27197 -4.49555,-7.16624 -7.38671,-14.4659 -9.94761,-19.6349 -4.04545,-8.16548 -10.51418,-20.7673 -16.02236,-34.54459"
           id="prot02"
           style="fill:url(#linearGradientrot_pos);fill-opacity:1" />
      </g>
      <g
         id="ggruen02"
         style="display:inline">
        <path
           d="m 551.02689,400.46086 c 0.21665,15.72349 0.5164,68.54273 0.5164,68.54273 l -92.68149,-0.69434 c 0,0 0,-1.91873 -0.0651,-31.94456 l 0.0606,-35.29988 c 0.0433,-25.23032 -0.28586,-33.17479 -0.28586,-41.7972 0,-3.48288 0.79177,-25.24485 0,-34.40543 0.29037,-15.71974 -15.09538,-21.70278 -26.07143,-21.78572 -1.45549,-0.0428 -1.10247,0 9.37195,0 18.86559,0 64.78069,-0.31939 86.69948,0 12.29061,0 22.97186,12.81211 22.97186,21.78572 0,41.33433 0,45.61509 -0.5164,75.59868 z"
           id="pgruen02"
           style="fill:url(#linearGradient3044)" />
      </g>
    </g>
  </g>
</svg>
